<svg width="105" height="60" id="Texto" xmlns="http://www.w3.org/2000/svg" viewBox="0 0 100 76"><defs><style>.cls-1{fill:#1b4c5d;}</style></defs><title>ico-foto</title><path class="cls-1" d="M1460,928v70h100V928H1460Zm96,66h-92V932h92v62Z" transform="translate(-1459.97 -922)"/><path class="cls-1" d="M1510.06,933.63a29.46,29.46,0,1,0,29.46,29.46A29.46,29.46,0,0,0,1510.06,933.63Zm0,53.68a24.21,24.21,0,1,1,24.21-24.21A24.21,24.21,0,0,1,1510.06,987.31Z" transform="translate(-1459.97 -922)"/><path class="cls-1" d="M1526.9,949a20.78,20.78,0,0,0-16.68-7.78s-0.08-.11-0.12-0.11l-4.55,7.9h21.34Z" transform="translate(-1459.97 -922)"/><path class="cls-1" d="M1529,953h-9.8l10.77,18.27a20.77,20.77,0,0,0,1.65-8.13C1531.6,959.43,1530.65,955,1529,953Z" transform="translate(-1459.97 -922)"/><path class="cls-1" d="M1512.85,984a21.32,21.32,0,0,0,13-6.67,20.31,20.31,0,0,0,2.53-3.87l-4.76-8.22Z" transform="translate(-1459.97 -922)"/><path class="cls-1" d="M1494,977c3.85,3,9.54,7.4,15.91,7.5l4.43-7.5H1494Z" transform="translate(-1459.97 -922)"/><path class="cls-1" d="M1490.1,955.45a20.83,20.83,0,0,0-1.24,7.11,20.18,20.18,0,0,0,3.38,11.44h8.45Z" transform="translate(-1459.97 -922)"/><path class="cls-1" d="M1507.09,941.67a21.38,21.38,0,0,0-15.53,10.73l4.65,8.07Z" transform="translate(-1459.97 -922)"/><polygon class="cls-1" points="34 10 34 4 66 4 66 10 70 10 70 0 30 0 30 10 34 10"/></svg>