<svg width="105" height="80" id="Texto" xmlns="http://www.w3.org/2000/svg" viewBox="0 0 100.56 100.56"><defs><style>.cls-1{fill:#1b4c5d;}</style></defs><title>ico-lugar</title><path class="cls-1" d="M1509.63,1059.85a27,27,0,1,0,27,27A27,27,0,0,0,1509.63,1059.85Zm0,49.15a22.17,22.17,0,1,1,22.17-22.17A22.17,22.17,0,0,1,1509.63,1109Z" transform="translate(-1459.97 -1036.55)"/><path class="cls-1" d="M1515.4,1048l-5.14-11.43-5.14,11.43-4.72,10.51a48.11,48.11,0,0,1,19.73,0Zm-5,5.45a14.5,14.5,0,0,0-3,.31l3-8.12,3,8.12A14.5,14.5,0,0,0,1510.42,1053.44Z" transform="translate(-1459.97 -1036.55)"/><path class="cls-1" d="M1505.12,1125.67l5.14,11.43,5.14-11.43,4.73-10.51a48.11,48.11,0,0,1-19.73,0Zm5-5.45a14.5,14.5,0,0,0,3-.31l-3,8.12-3-8.12A14.5,14.5,0,0,0,1510.09,1120.22Z" transform="translate(-1459.97 -1036.55)"/><path class="cls-1" d="M1486.42,1055.72l-11.72-4.45,4.45,11.72,4.09,10.77a48.11,48.11,0,0,1,14-14Zm0.34,7.37a14.5,14.5,0,0,0-1.91,2.35l-3.61-7.87,7.87,3.61A14.5,14.5,0,0,0,1486.76,1063.1Z" transform="translate(-1459.97 -1036.55)"/><path class="cls-1" d="M1534.09,1117.93l11.72,4.45-4.45-11.72-4.09-10.77a48.11,48.11,0,0,1-14,14Zm-0.34-7.37a14.5,14.5,0,0,0,1.91-2.35l3.61,7.87-7.87-3.61A14.5,14.5,0,0,0,1533.75,1110.56Z" transform="translate(-1459.97 -1036.55)"/><path class="cls-1" d="M1471.41,1081.69l-11.43,5.14,11.43,5.14,10.51,4.73a48.11,48.11,0,0,1,0-19.73Zm5.45,5a14.5,14.5,0,0,0,.31,3l-8.12-3,8.12-3A14.49,14.49,0,0,0,1476.86,1086.66Z" transform="translate(-1459.97 -1036.55)"/><path class="cls-1" d="M1549.1,1092l11.43-5.14-11.43-5.14-10.51-4.73a48.11,48.11,0,0,1,0,19.73Zm-5.45-5a14.5,14.5,0,0,0-.31-3l8.12,3-8.12,3A14.5,14.5,0,0,0,1543.65,1087Z" transform="translate(-1459.97 -1036.55)"/><path class="cls-1" d="M1479.15,1110.66l-4.45,11.72,11.72-4.45,10.77-4.09a48.11,48.11,0,0,1-14-14Zm7.37-.34a14.5,14.5,0,0,0,2.35,1.91l-7.87,3.61,3.61-7.87A14.5,14.5,0,0,0,1486.53,1110.32Z" transform="translate(-1459.97 -1036.55)"/><path class="cls-1" d="M1541.36,1063l4.45-11.72-11.72,4.45-10.77,4.09a48.11,48.11,0,0,1,14,14Zm-7.37.34a14.5,14.5,0,0,0-2.35-1.91l7.87-3.61-3.61,7.87A14.5,14.5,0,0,0,1534,1063.33Z" transform="translate(-1459.97 -1036.55)"/></svg>