<svg width="105" height="60" id="Texto" xmlns="http://www.w3.org/2000/svg" viewBox="0 0 96.86 61.89"><defs><style>.cls-1{fill:#1b4c5d;}</style></defs><title>ico-03foto</title><path class="cls-1" d="M1558.68,1206a53.42,53.42,0,0,0-96.86,0,53.43,53.43,0,0,0,44.85,30.75,30.39,30.39,0,0,0,8.93-.15A53.44,53.44,0,0,0,1558.68,1206Zm-48.07,25.53a25.3,25.3,0,1,1,25.3-25.3A25.3,25.3,0,0,1,1510.61,1231.48Zm-42-25.53a46.13,46.13,0,0,1,19.63-20.93,30.76,30.76,0,0,0-.84,41.37A46.12,46.12,0,0,1,1468.61,1206Zm66,19.56a30.77,30.77,0,0,0-.76-39.58,46.12,46.12,0,0,1,18.08,20A46.12,46.12,0,0,1,1534.57,1225.52Z" transform="translate(-1461.83 -1175.07)"/><path class="cls-1" d="M1515.12,1183.75a17.55,17.55,0,1,0,17.55,17.55A17.55,17.55,0,0,0,1515.12,1183.75Zm2.8,22a9.07,9.07,0,1,1,9.07-9.07A9.07,9.07,0,0,1,1517.92,1205.72Z" transform="translate(-1461.83 -1175.07)"/></svg>