<svg width="105" height="80" id="Texto" xmlns="http://www.w3.org/2000/svg" viewBox="0 0 56.99 87.15"><defs><style>.cls-1{fill:#1b4c5d;}</style></defs><title>ico-04localizacao</title><path class="cls-1" d="M1510.44,1396.12a25.65,25.65,0,0,0-25.65,25.65c0,14.16,25.28,49.85,25.65,50.21s25.65-36,25.65-50.21A25.65,25.65,0,0,0,1510.44,1396.12Zm0,68.75c-0.29-.31-20.84-30.52-20.84-42.51s9.33-21.71,20.84-21.71,20.84,9.72,20.84,21.71S1510.86,1465.3,1510.44,1464.87Z" transform="translate(-1481.76 -1396.12)"/><circle class="cls-1" cx="28.68" cy="25.79" r="14.77"/><path class="cls-1" d="M1520.42,1465.72q-1.27,1.92-2.43,3.62c7.49,0.78,12.78,2.66,12.78,4.85,0,2.89-9.18,5.24-20.51,5.24s-20.51-2.35-20.51-5.24c0-2.3,5.8-4.25,13.86-5q-1.15-1.71-2.43-3.64c-11.28,1.21-19.42,4.6-19.42,8.6,0,5,12.76,9.07,28.5,9.07s28.5-4.06,28.5-9.07C1538.75,1470.32,1531.13,1467,1520.42,1465.72Z" transform="translate(-1481.76 -1396.12)"/></svg>