<svg width="105" height="80" id="Texto" xmlns="http://www.w3.org/2000/svg" viewBox="0 0 102.37 84.95"><defs><style>.cls-1{fill:#1b4c5d;}</style></defs><title>ico-05assinatura</title><path class="cls-1" d="M1494.32,1528" transform="translate(-1443.59 -1520.83)"/><path class="cls-1" d="M1454.43,1605.57a41.25,41.25,0,0,0,6.88-2.46c2.23-1,4.4-2.11,6.52-3.31a69.59,69.59,0,0,0,6.16-3.88,17.27,17.27,0,0,0,1.38-1.11,1.26,1.26,0,0,0,.63-1,1.89,1.89,0,0,0-.93-0.89,9.31,9.31,0,0,0-1.57-.67,25,25,0,0,0-3.46-.85c-1.19-.22-2.37-0.36-3.59-0.51-2.39-.27-4.83-0.44-7.26-0.54s-4.87-.16-7.3-0.15-4.87.05-7.31,0.12l0.45-1.75c0.75,0.44,1.51.88,2.27,1.3s1.54,0.82,2.31,1.2,1.56,0.75,2.36,1.08,1.6,0.65,2.42.93a34.37,34.37,0,0,0,10.23,1.76c1.76,0.07,3.52.1,5.3,0.09h5.32c3.55,0,7.1.12,10.64,0.39l-0.27.09a4,4,0,0,0,.41-0.4,0.57,0.57,0,0,0,.1-0.15,0.18,0.18,0,0,0,0,.08,1.55,1.55,0,0,0-.35-0.11,5.58,5.58,0,0,0-.58-0.08c-0.8-.07-1.64-0.07-2.48-0.07-1.67,0-3.36.1-5,.19-0.84.06-1.68,0-2.47,0.11a7.83,7.83,0,0,0-2.26.53l-4.79,1.64-0.55-1.72c4.13-1.34,8.25-2.75,12.28-4.35a60.24,60.24,0,0,0,5.86-2.62,8.17,8.17,0,0,0,1.2-.76l0.1-.09,0,0.06a0.85,0.85,0,0,0-.06.2,0.93,0.93,0,0,0,.23.74c0.28,0.24.24,0.14,0.2,0.16l-0.26,0a11,11,0,0,0-1.47.08c-0.52.06-1,.13-1.57,0.21l0.25-.07a5.6,5.6,0,0,0-1.4.77,0.64,0.64,0,0,0-.2.25,1.54,1.54,0,0,0,0,.51,3.37,3.37,0,0,1,0,1.45,2.8,2.8,0,0,1-.89,1.37,5.36,5.36,0,0,1-1,.68c-0.34.18-.68,0.32-1,0.45l-0.53-2.12c0.57-.07,1.23-0.18,1.86-0.29l1.93-.35,2-.34,1-.15,0.55-.05H1487l0.28,0,0.1,0,0.22,0.08,0.1,0.05a0.83,0.83,0,0,1,.17.12,1.16,1.16,0,0,1,.38.68v0a1,1,0,0,1-.89,1.17,1.06,1.06,0,0,1-.42,0l-0.18-.06a1.34,1.34,0,0,1-.22-0.1,1.18,1.18,0,0,1-.23-0.19l-0.12-.15a0.9,0.9,0,0,1-.13-0.28,1.08,1.08,0,0,1,0-.69,1.07,1.07,0,0,1,.16-0.27l0.07-.08a1.12,1.12,0,0,1,.26-0.2l0.13-.06h0l0.07,0,0.11,0,0.11,0h1.24l1.36,0.06,2.69,0.15,2.67,0.14c0.88,0,1.78.08,2.63,0.07l-0.45,1.74a0.34,0.34,0,0,0,.26.09l-0.16,0a4.35,4.35,0,0,0-.48.16c-0.34.13-.7,0.3-1.05,0.47-0.71.35-1.41,0.75-2.09,1.18a20.39,20.39,0,0,0-1.95,1.36,5.64,5.64,0,0,0-.77.72l-0.08.11a0.49,0.49,0,0,0,0-.37,0.68,0.68,0,0,0-.25-0.35,0.39,0.39,0,0,0-.13-0.07h0.08l-0.42,1.68a1.58,1.58,0,0,1-.53-0.48,2.59,2.59,0,0,1-.23-0.41,6.07,6.07,0,0,1-.26-0.68l-0.37-1.17a4.35,4.35,0,0,0-.42-0.93,0.72,0.72,0,0,0-.42-0.36h-0.06a0.84,0.84,0,0,1,.24-1.66,2,2,0,0,1,.41.07,1,1,0,0,1,.53.34,0.92,0.92,0,0,1,.19.66,0.94,0.94,0,0,1-.13.38,1.36,1.36,0,0,1-.36.38l-0.23.16-0.73.46-0.1.07s0,0,0-.12a0.61,0.61,0,0,0,0-.4,0.5,0.5,0,0,0-.18-0.22,0.11,0.11,0,1,0,0,0,3.27,3.27,0,0,0,.73.12l-0.42,1.18a0.84,0.84,0,0,1-.14-0.14,0.63,0.63,0,0,1-.11-0.23,0.7,0.7,0,0,1,.09-0.59,0.81,0.81,0,0,1,.29-0.27,1.61,1.61,0,0,1,.27-0.12l0.39-.11,0.72-.15,1.39-.22,2.76-.37,2.74-.37,1.35-.21,0.65-.13,0.27-.08s0.06,0,0,0a0.38,0.38,0,0,0-.1.09,0.55,0.55,0,0,0-.11.45,0.6,0.6,0,0,0,.09.21,0.53,0.53,0,0,0,.1.11l0.08,0,0.86-.44a2.34,2.34,0,0,0,0,1.12,1.22,1.22,0,0,0,.63.74,5,5,0,0,0,2.51.36,20.47,20.47,0,0,0,2.76-.37l1.38-.3a4.7,4.7,0,0,1,1.52-.17,5.24,5.24,0,0,1,2.73,1.19,1.28,1.28,0,0,0,.45.24h0l0-.07,0.07-.07a0.87,0.87,0,0,1,.46-0.22,5.75,5.75,0,0,1,1.49,0c1,0.1,1.89.24,2.84,0.31a8.74,8.74,0,0,0,2.8-.14,0.1,0.1,0,0,1,.13.07,0.11,0.11,0,0,1-.07.13,9,9,0,0,1-2.87.26c-1,0-1.91-.14-2.85-0.2a5.47,5.47,0,0,0-1.35,0,1,1,0,0,0-.19.07l0,0.06-0.05.08a0.52,0.52,0,0,1-.28.18,1.25,1.25,0,0,1-.85-0.27,8.58,8.58,0,0,0-1.21-.67,3.37,3.37,0,0,0-1.27-.28,4,4,0,0,0-1.3.22l-1.39.38a18.92,18.92,0,0,1-2.87.53,9,9,0,0,1-1.51,0,4.24,4.24,0,0,1-1.57-.39,2.36,2.36,0,0,1-1.21-1.34,3.48,3.48,0,0,1-.11-1.7,0.59,0.59,0,0,1,.67-0.5,0.63,0.63,0,0,1,.19.06l0.15,0.1a0.74,0.74,0,0,1,.13.14,0.58,0.58,0,0,1,.1.24,0.63,0.63,0,0,1-.13.53,0.77,0.77,0,0,1-.16.15,1.3,1.3,0,0,1-.3.15l-0.39.12-0.71.15-1.39.23-2.75.4-2.74.4-1.35.23-0.64.14-0.27.08,0,0a0.45,0.45,0,0,0,.16-0.16,0.61,0.61,0,0,0,.07-0.51,0.69,0.69,0,0,0-.09-0.19,0.52,0.52,0,0,0-.11-0.11l-0.42,1.18a4.51,4.51,0,0,1-1.08-.06,1.28,1.28,0,0,1-.44-0.18,0.93,0.93,0,0,1-.33-0.39,0.91,0.91,0,0,1,0-.62,1.27,1.27,0,0,1,.29-0.5,2.78,2.78,0,0,1,.24-0.23c0.29-.25.55-0.41,0.77-0.58l0.13-.11a0.47,0.47,0,1,1,0,.05,0.67,0.67,0,0,0-.09.27,0.78,0.78,0,0,0,.16.56,0.62,0.62,0,0,0,.33.23s0,0,0,0l0.18-1.67a2.14,2.14,0,0,1,.93.41,2.84,2.84,0,0,1,.61.65,5.92,5.92,0,0,1,.64,1.31l0.41,1.19a4.28,4.28,0,0,0,.19.48c0,0.13.16,0.19,0,.08l-0.42,1.68a2.13,2.13,0,0,1-.54-0.07,1.37,1.37,0,0,1-.42-0.19,1.13,1.13,0,0,1-.43-0.59,1.27,1.27,0,0,1,.11-1,2.53,2.53,0,0,1,.27-0.41,7.13,7.13,0,0,1,1-1,22.19,22.19,0,0,1,2.11-1.51c0.72-.46,1.46-0.89,2.23-1.28,0.39-.2.78-0.38,1.21-0.55a6.18,6.18,0,0,1,.7-0.23,2.85,2.85,0,0,1,.45-0.08,1.4,1.4,0,0,1,.87.17,0.92,0.92,0,0,1-.38,1.74h-0.07c-0.95,0-1.84,0-2.75,0l-2.7-.07-2.68-.08-1.33,0h-0.91l0.07,0,0.05,0h0l0.12-.05a1,1,0,0,0,.25-0.19l0.07-.08a1,1,0,0,0,.19-0.95,1,1,0,0,0-.12-0.28l-0.11-.15a1.13,1.13,0,0,0-.22-0.18,0.94,0.94,0,0,0-.14-0.07h0l-1.31,1.18a1,1,0,0,0,.34.63l0.15,0.11,0.07,0,0.16,0.05h-0.08l-0.43,0-0.93.15-1.91.35-1.93.37c-0.66.12-1.29,0.25-2,.34a1.1,1.1,0,0,1-.55-2.11h0a5.36,5.36,0,0,0,1.39-.78,0.66,0.66,0,0,0,.2-0.25,1.44,1.44,0,0,0,0-.51,3.38,3.38,0,0,1,0-1.45,2.79,2.79,0,0,1,.89-1.36,5.48,5.48,0,0,1,1-.69,9.72,9.72,0,0,1,1-.45h0l0.23-.06c0.55-.08,1.11-0.15,1.68-0.2a12.79,12.79,0,0,1,1.8-.07,4.45,4.45,0,0,1,.56.07,1.73,1.73,0,0,1,.94.47,1.31,1.31,0,0,1,.31.51,1.33,1.33,0,0,1,0,.6,1.35,1.35,0,0,1-.13.39,1.39,1.39,0,0,1-.14.24,2.6,2.6,0,0,1-.48.49,9.92,9.92,0,0,1-1.57,1,61.92,61.92,0,0,1-6.13,2.64q-6.18,2.33-12.49,4.18h0a0.9,0.9,0,0,1-.52-1.72l4.82-1.52c0.39-.12.83-0.27,1.29-0.37a9.23,9.23,0,0,1,1.37-.18,25.7,25.7,0,0,1,2.58,0c1.69,0.06,3.38.14,5.08,0.25,0.85,0.06,1.7.13,2.57,0.27a6.41,6.41,0,0,1,.67.15,1.45,1.45,0,0,1,.76.44,0.69,0.69,0,0,1,.08.67,1.31,1.31,0,0,1-.24.37,4.6,4.6,0,0,1-.51.47,0.38,0.38,0,0,1-.27.09c-3.52-.3-7-0.51-10.58-0.47s-7.06.24-10.63,0.31a43.27,43.27,0,0,1-5.38-.22,30.88,30.88,0,0,1-5.33-1c-0.87-.25-1.74-0.53-2.58-0.86s-1.68-.68-2.5-1.06-1.62-.78-2.42-1.21-1.57-.87-2.35-1.32a1.28,1.28,0,0,1,.44-2.2h0c2.46,0,4.92.13,7.38,0.15s4.92,0.2,7.38.36,4.91,0.42,7.38.76c1.21,0.16,2.45.41,3.66,0.67a26.41,26.41,0,0,1,3.63,1,10.57,10.57,0,0,1,1.77.85,4.66,4.66,0,0,1,.84.65,2.11,2.11,0,0,1,.63,1.11,1.6,1.6,0,0,1,0,.72,2,2,0,0,1-.28.58,4.43,4.43,0,0,1-.74.78,18.32,18.32,0,0,1-1.51,1.15,58,58,0,0,1-6.39,3.74c-2.19,1.12-4.43,2.16-6.71,3.07a37.74,37.74,0,0,1-7.05,2.14,0.1,0.1,0,0,1-.12-0.08A0.11,0.11,0,0,1,1454.43,1605.57Z" transform="translate(-1443.59 -1520.83)"/><path class="cls-1" d="M1492.13,1570.93l-1.46,2.36a12.7,12.7,0,0,0,4.15,17.47l0.51,0.31a12.7,12.7,0,0,0,17.47-4.15l1.46-2.36Z" transform="translate(-1443.59 -1520.83)"/><path class="cls-1" d="M1521.22,1520.83l-30.76,50.35,24.75,15.12,30.76-50.35Zm-6.82,59.11L1496.48,1569l26.07-42.67,17.92,10.95Z" transform="translate(-1443.59 -1520.83)"/></svg>